<?xml version="1.0" standalone="no"?><!DOCTYPE svg PUBLIC "-//W3C//DTD SVG 1.1//EN" "http://www.w3.org/Graphics/SVG/1.1/DTD/svg11.dtd"><svg t="1713857751576" class="icon" viewBox="0 0 1024 1024" version="1.1" xmlns="http://www.w3.org/2000/svg" p-id="12173" xmlns:xlink="http://www.w3.org/1999/xlink" width="48" height="48"><path d="M984.615385 945.112615a39.384615 39.384615 0 1 1 0 78.769231H39.384615a39.384615 39.384615 0 1 1 0-78.769231zM910.572308 42.180923l18.589538 18.589539a144.423385 144.423385 0 0 1 0 204.327384l-531.692308 531.692308a197.159385 197.159385 0 0 1-96.137846 52.893538l-187.392 42.102154a39.384615 39.384615 0 0 1-46.473846-49.585231l53.326769-180.775384a196.923077 196.923077 0 0 1 49.703385-83.613539l535.630769-535.630769a144.659692 144.659692 0 0 1 204.445539 0z m-245.563077 152.536615L226.067692 633.462154a118.153846 118.153846 0 0 0-29.814154 50.136615l-34.382769 116.499693 122.092308-27.569231a118.153846 118.153846 0 0 0 57.698461-31.744L776.664615 306.057846l-111.497846-111.419077z m96.846769-96.807384L720.738462 139.106462l111.497846 111.419076 41.078154-41.078153a65.654154 65.654154 0 0 0 0-92.868923l-18.589539-18.589539a65.732923 65.732923 0 0 0-92.868923 0.039385z" fill="#2c2c2c" p-id="12174"></path></svg>